<?xml version="1.0" encoding="UTF-8" standalone="no"?>
<!-- Created with Inkscape (http://www.inkscape.org/) -->

<svg
   xmlns:dc="http://purl.org/dc/elements/1.1/"
   xmlns:cc="http://creativecommons.org/ns#"
   xmlns:rdf="http://www.w3.org/1999/02/22-rdf-syntax-ns#"
   xmlns:svg="http://www.w3.org/2000/svg"
   xmlns="http://www.w3.org/2000/svg"
   xmlns:sodipodi="http://sodipodi.sourceforge.net/DTD/sodipodi-0.dtd"
   xmlns:inkscape="http://www.inkscape.org/namespaces/inkscape"
   width="69.584671mm"
   height="17.278278mm"
   viewBox="0 0 69.584672 17.278278"
   version="1.1"
   id="svg8"
   inkscape:export-filename="C:\Users\Patrick\Desktop\text4332.png"
   inkscape:export-xdpi="444.11572"
   inkscape:export-ydpi="444.11572"
   inkscape:version="0.92.2 (5c3e80d, 2017-08-06)"
   sodipodi:docname="logo.svg">
  <defs
     id="defs2" />
  <sodipodi:namedview
     id="base"
     pagecolor="#ffffff"
     bordercolor="#666666"
     borderopacity="1.0"
     inkscape:pageopacity="0.0"
     inkscape:pageshadow="2"
     inkscape:zoom="1.4142136"
     inkscape:cx="195.06222"
     inkscape:cy="-12.632741"
     inkscape:document-units="mm"
     inkscape:current-layer="layer1"
     showgrid="false"
     inkscape:window-width="1858"
     inkscape:window-height="1057"
     inkscape:window-x="54"
     inkscape:window-y="-8"
     inkscape:window-maximized="1" />
  <metadata
     id="metadata5">
    <rdf:RDF>
      <cc:Work
         rdf:about="">
        <dc:format>image/svg+xml</dc:format>
        <dc:type
           rdf:resource="http://purl.org/dc/dcmitype/StillImage" />
        <dc:title></dc:title>
      </cc:Work>
    </rdf:RDF>
  </metadata>
  <g
     inkscape:label="Layer 1"
     inkscape:groupmode="layer"
     id="layer1"
     transform="translate(237.86109,-174.88057)">
    <text
       xml:space="preserve"
       style="font-style:normal;font-variant:normal;font-weight:normal;font-stretch:normal;font-size:10.58333302px;line-height:1.25;font-family:'Tw Cen MT';-inkscape-font-specification:'Tw Cen MT';letter-spacing:0px;word-spacing:0px;fill:#000000;fill-opacity:1;stroke:none;stroke-width:0.26458332"
       x="-243.32217"
       y="190.69418"
       id="text4328"><tspan
         sodipodi:role="line"
         id="tspan4326"
         x="-243.32217"
         y="200.32501"
         style="font-style:normal;font-variant:normal;font-weight:normal;font-stretch:normal;font-family:'Tw Cen MT';-inkscape-font-specification:'Tw Cen MT';stroke-width:0.26458332" /></text>
    <g
       aria-label="EZconnect"
       style="font-style:normal;font-variant:normal;font-weight:normal;font-stretch:normal;font-size:10.58333302px;line-height:1.25;font-family:'Segoe Print';-inkscape-font-specification:'Segoe Print';letter-spacing:0px;word-spacing:0px;fill:#000000;fill-opacity:1;stroke:none;stroke-width:0.26458332"
       id="text4332"
       inkscape:export-xdpi="444.11572"
       inkscape:export-ydpi="444.11572"
       transform="matrix(2.027798,0,0,2.027798,244.47317,-197.5005)">
      <path
         d="m -237.8611,183.63815 h 2.83408 v 0.89917 h -1.94525 v 1.64331 h 3.91146 l -0.64256,0.88883 h -3.2689 v 2.26343 h 1.66132 l -0.64256,0.88884 h -1.88899 z"
         style="font-style:normal;font-variant:normal;font-weight:normal;font-stretch:normal;font-family:'Tw Cen MT';-inkscape-font-specification:'Tw Cen MT';fill:#cccccc;stroke-width:0.26458332"
         id="path4334"
         inkscape:connector-curvature="0"
         sodipodi:nodetypes="ccccccccccccc"
         inkscape:export-xdpi="444.11572"
         inkscape:export-ydpi="444.11572" />
      <path
         d="m -235.70738,183.63815 h 6.05765 l -5.03889,7.63187 h 31.12008 v 0.88884 h -33.23881 l 5.44345,-7.62154 h -4.34348 z"
         style="font-style:normal;font-variant:normal;font-weight:normal;font-stretch:normal;font-family:'Tw Cen MT';-inkscape-font-specification:'Tw Cen MT';fill:#cccccc;stroke-width:0.26458332"
         id="path4336"
         inkscape:connector-curvature="0"
         sodipodi:nodetypes="ccccccccc"
         inkscape:export-xdpi="444.11572"
         inkscape:export-ydpi="444.11572" />
      <path
         d="m -227.31282,188.07199 c 0,-0.29271 0.86648,-0.2807 0.86648,0.01 0,1.11227 -1.53632,2.25825 -2.83538,2.25888 -0.58911,0 -1.10588,-0.22049 -1.5503,-0.66146 -0.44097,-0.44441 -0.66145,-0.95773 -0.66145,-1.53995 0,-0.66146 0.22048,-1.20923 0.66145,-1.64332 0.44097,-0.43753 0.99391,-0.65629 1.65882,-0.65629 0.39619,0 0.80443,0.10335 1.22473,0.31006 l -1e-4,1.00253 c -0.45131,-0.28939 -0.8785,-0.43409 -1.28158,-0.43409 -0.37207,0 -0.69763,0.13091 -0.97668,0.39274 -0.27905,0.26183 -0.41858,0.56845 -0.41858,0.91984 0,0.39619 0.13091,0.73036 0.39274,1.00253 0.26183,0.26871 0.59826,0.40185 0.96118,0.40307 0.84486,0.003 1.95867,-0.79775 1.95867,-1.36425 z"
         style="font-style:normal;font-variant:normal;font-weight:normal;font-stretch:normal;font-family:'Tw Cen MT';-inkscape-font-specification:'Tw Cen MT';fill:#87aade;stroke-width:0.26458332"
         id="path4338"
         inkscape:connector-curvature="0"
         sodipodi:nodetypes="ssccscsccscscsss" />
      <path
         d="m -227.31282,188.07199 q 0,-0.87334 0.68729,-1.5503 0.69247,-0.68213 1.58647,-0.68213 0.91984,0 1.60714,0.6718 0.68729,0.66662 0.68729,1.56063 0,0.89917 -0.67696,1.58646 -0.67179,0.68213 -1.55546,0.68213 -0.94568,0 -1.64331,-0.67696 -0.69246,-0.67696 -0.69246,-1.59163 z m 3.70003,0 q 0,-0.54261 -0.41341,-0.94052 -0.41341,-0.40307 -0.98185,-0.40307 -0.58395,0 -1.00769,0.40824 -0.41858,0.40308 -0.41858,0.96635 0,0.53744 0.42374,0.94051 0.42892,0.40308 1.00253,0.40308 0.5581,0 0.97668,-0.41341 0.41858,-0.41341 0.41858,-0.96118 z"
         style="font-style:normal;font-variant:normal;font-weight:normal;font-stretch:normal;font-family:'Tw Cen MT';-inkscape-font-specification:'Tw Cen MT';fill:#87aade;stroke-width:0.26458332"
         id="path4340"
         inkscape:connector-curvature="0" />
      <path
         d="m -222.47798,190.22173 v -4.26331 h 0.8785 v 0.70797 c 0.25839,-0.28595 0.49266,-0.49438 0.7028,-0.62529 0.21016,-0.13436 0.44442,-0.20154 0.7028,-0.20154 0.38586,0 0.71486,0.12747 0.98702,0.38241 0.27561,0.25494 0.35274,0.56673 0.41341,0.91984 v 3.07992 h -0.89917 v -2.81637 c 0,-0.23082 -0.0758,-0.42202 -0.22737,-0.57361 -0.14814,-0.15158 -0.33762,-0.22737 -0.56844,-0.22737 -0.29972,0 -0.55811,0.12747 -0.77515,0.3824 -0.21704,0.25149 -0.40522,0.56535 -0.32556,0.91467 v 2.32028 z"
         style="font-style:normal;font-variant:normal;font-weight:normal;font-stretch:normal;font-family:'Tw Cen MT';-inkscape-font-specification:'Tw Cen MT';fill:#87aade;stroke-width:0.26458332"
         id="path4342"
         inkscape:connector-curvature="0"
         sodipodi:nodetypes="cccccscsccscscscc" />
      <path
         d="m -218.37694,190.22173 v -4.26331 h 0.8785 v 0.70797 c 0.25838,-0.28595 0.49265,-0.49438 0.7028,-0.62529 0.21016,-0.13436 0.44442,-0.20154 0.7028,-0.20154 0.38585,0 0.71486,0.12747 0.98702,0.38241 0.27561,0.25494 0.35274,0.56673 0.41341,0.91984 v 3.07992 h -0.89917 v -2.81637 c 0,-0.23082 -0.0758,-0.42202 -0.22738,-0.57361 -0.14814,-0.15158 -0.33762,-0.22737 -0.56844,-0.22737 -0.29972,0 -0.5581,0.12747 -0.77514,0.3824 -0.21704,0.25149 -0.40523,0.56535 -0.32557,0.91467 v 2.32028 z"
         style="font-style:normal;font-variant:normal;font-weight:normal;font-stretch:normal;font-family:'Tw Cen MT';-inkscape-font-specification:'Tw Cen MT';fill:#87aade;stroke-width:0.26458332"
         id="path4344"
         inkscape:connector-curvature="0"
         sodipodi:nodetypes="cccccscsccscscscc" />
      <path
         d="m -209.85239,188.26319 h -3.63802 c 0.0792,0.43753 0.25838,0.75792 0.53743,0.96118 0.2825,0.19981 0.58911,0.29972 0.91984,0.29972 0.50988,0 0.93707,-0.21187 1.28158,-0.63562 l 0.65629,0.4961 c -0.49265,0.63734 -1.15238,0.95601 -1.97921,0.95601 -0.63389,0 -1.16444,-0.21704 -1.59163,-0.65112 -0.42719,-0.43408 -0.64079,-0.97324 -0.64079,-1.61747 0,-0.60289 0.21532,-1.12483 0.64596,-1.5658 0.43408,-0.44442 0.9629,-0.66663 1.58646,-0.66663 0.61323,0 1.1386,0.22566 1.57613,0.67697 0.43753,0.44786 0.65285,1.03008 0.64596,1.74666 z m -3.545,-0.7183 h 2.60449 c -0.28939,-0.58567 -0.71658,-0.8785 -1.28158,-0.8785 -0.61667,0 -1.05764,0.29283 -1.32291,0.8785 z"
         style="font-style:normal;font-variant:normal;font-weight:normal;font-stretch:normal;font-family:'Tw Cen MT';-inkscape-font-specification:'Tw Cen MT';fill:#87aade;stroke-width:0.26458332"
         id="path4346"
         inkscape:connector-curvature="0"
         sodipodi:nodetypes="cccsccssscsccccsc" />
      <path
         style="font-style:normal;font-variant:normal;font-weight:normal;font-stretch:normal;font-family:'Tw Cen MT';-inkscape-font-specification:'Tw Cen MT';fill:#87aade;stroke-width:0.99999994"
         d="m -776.06445,698.14844 v 4.23773 c 0,0 -4.24348,0.004 -6.87696,-10e-4 -2.51304,0 -4.60287,0.82681 -6.26953,2.48046 -1.66666,1.64066 -2.5,3.71289 -2.5,6.21289 0,2.20052 0.83334,4.14066 2.5,5.82032 1.67966,1.66666 3.63282,2.5 5.85938,2.5 1.62758,0 3.30728,-0.49478 5.03906,-1.48438 v -3.88672 c -1.87499,1.30209 -3.54167,1.95118 -5,1.95118 -1.43229,0 -2.64322,-0.50589 -3.63281,-1.52149 -0.9896,-1.02867 -1.48438,-2.2936 -1.48438,-3.79101 0,-1.32809 0.52736,-2.48697 1.58203,-3.47657 1.05468,-0.98959 2.28516,-1.48437 3.69141,-1.48437 3.03106,-0.0495 7.0918,-0.047 7.0918,-0.047 v 13.29113 h 3.39843 v -13.36133 h 3.35938 v -3.10742 h -3.35938 v -4.33203 z"
         transform="scale(0.26458333)"
         id="path4348"
         inkscape:connector-curvature="0"
         sodipodi:nodetypes="ccccscsccscsccccccccccc" />
    </g>
  </g>
</svg>
